<svg xmlns="http://www.w3.org/2000/svg" viewBox="0 0 1122 794" width="1122" height="794">
  <!-- Clean white background -->
  <rect width="1122" height="794" fill="#FFFFFF"/>
  
  <!-- Navy Inner Border -->
  <rect x="40" y="40" width="1042" height="714" fill="none" stroke="#0D1B2A" stroke-width="1.5" rx="4"/>
  
  <!-- Modern Geometric Accents (Top Left) -->
  <path d="M 0,0 L 160,0 L 0,160 Z" fill="#0D1B2A"/>
  <path d="M 0,165 L 175,0 L 190,0 L 0,190 Z" fill="#D4AF37"/>
  
  <!-- Modern Geometric Accents (Bottom Right) -->
  <path d="M 1122,794 L 962,794 L 1122,634 Z" fill="#0D1B2A"/>
  <path d="M 1122,629 L 947,794 L 932,794 L 1122,604 Z" fill="#D4AF37"/>

  <!-- Top Center Golden Star -->
  <g transform="translate(561, 95)">
    <circle r="16" fill="none" stroke="#0D1B2A" stroke-width="1.5"/>
    <polygon points="0,-7 2,-2 7,-2 3.5,1 5,6 0,3 -5,6 -3.5,1 -7,-2 -2,-2" fill="#D4AF37"/>
  </g>
</svg>
